4d54 6864 0000 0006 0001 0002 03c0 4d54
726b 0000 0019 00ff 5103 0927 c000 ff59
0200 0000 ff58 0403 0218 0800 ff2f 004d
5472 6b00 0000 be00 b000 0000 2000 00c0
0000 ff03 0855 6e74 6974 6c65 6400 b007
7f00 9040 5096 4080 4000 0090 3950 9640
8039 0000 903c 5083 603e 5083 6040 5087
4080 3e00 8740 3c00 0040 0000 9039 508f
0080 3900 0090 3c50 8360 3e50 8360 803c
0000 3e00 0090 3b50 a920 803b 0083 6090
3e50 9640 803e 0000 9037 5096 4080 3700
0090 3c50 8360 803c 0000 903b 5083 603e
508f 0080 3e00 003b 0000 9037 508f 0080
3700 0090 3c50 8360 3b50 8360 803b 0000
9039 5096 4080 3c00 8f00 3900 873f b07f
0000 ff2f 00