4d54 6864 0000 0006 0001 0005 01e0 4d54
726b 0000 0022 00ff 5804 0402 1808 00ff
5902 0000 00ff 5405 2000 0000 0000 ff51
0308 b825 00ff 2f00 4d54 726b 0000 0a1e
00ff 030b 4d49 4449 2052 6567 696f 6e00
ff04 1352 6576 6572 7365 2045 6e67 696e
6565 7269 6e67 00b0 0000 00c0 5000 904c
4350 804c 4328 904c 4350 804c 4381 2090
4c43 5080 4c43 8120 9048 4350 8048 4328
904c 4350 804c 4381 2090 4f43 5080 4f43
8670 9048 4350 8048 4382 1890 4343 5080
4343 8218 9040 4350 8040 4382 1890 4543
5080 4543 8120 9047 4350 8047 4381 2090
4643 5080 4643 2890 4543 5080 4543 8120
9043 4350 8043 4350 904c 4350 804c 4350
904f 4350 804f 4350 9051 4350 8051 4381
2090 4d43 5080 4d43 2890 4f43 5080 4f43
8120 904c 4350 804c 4381 2090 4843 5080
4843 2890 4a43 5080 4a43 2890 4743 5080
4743 8218 9048 4350 8048 4382 1890 4343
5080 4343 8218 9040 4350 8040 4382 1890
4543 5080 4543 8120 9047 4350 8047 4381
2090 4643 5080 4643 2890 4543 5080 4543
8120 9043 4350 8043 4350 904c 4350 804c
4350 904f 4350 804f 4350 9051 4350 8051
4381 2090 4d43 5080 4d43 2890 4f43 5080
4f43 8120 904c 4350 804c 4381 2090 4843
5080 4843 2890 4a43 5080 4a43 2890 4743
5080 4743 8408 904f 4350 804f 4328 904e
4350 804e 4328 904d 4350 804d 4328 904b
4350 804b 4381 2090 4c43 5080 4c43 8120
9044 4350 8044 4328 9045 4350 8045 4328
9048 4350 8048 4381 2090 4543 5080 4543
2890 4843 5080 4843 2890 4a43 5080 4a43
8218 904f 4350 804f 4328 904e 4350 804e
4328 904d 4350 804d 4328 904b 4350 804b
4381 2090 4c43 5080 4c43 8120 9054 4350
8054 4381 2090 5443 5080 5443 2890 5443
5080 5443 8500 904f 4350 804f 4328 904e
4350 804e 4328 904d 4350 804d 4328 904b
4350 804b 4381 2090 4c43 5080 4c43 8120
9044 4350 8044 4328 9045 4350 8045 4328
9048 4350 8048 4381 2090 4543 5080 4543
2890 4843 5080 4843 2890 4a43 5080 4a43
8218 904b 4350 804b 4382 1890 4a43 5080
4a43 8218 9048 4350 8048 4388 6090 4f43
5080 4f43 2890 4e43 5080 4e43 2890 4d43
5080 4d43 2890 4b43 5080 4b43 8120 904c
4350 804c 4381 2090 4443 5080 4443 2890
4543 5080 4543 2890 4843 5080 4843 8120
9045 4350 8045 4328 9048 4350 8048 4328
904a 4350 804a 4382 1890 4f43 5080 4f43
2890 4e43 5080 4e43 2890 4d43 5080 4d43
2890 4b43 5080 4b43 8120 904c 4350 804c
4381 2090 5443 5080 5443 8120 9054 4350
8054 4328 9054 4350 8054 4385 0090 4f43
5080 4f43 2890 4e43 5080 4e43 2890 4d43
5080 4d43 2890 4b43 5080 4b43 8120 904c
4350 804c 4381 2090 4443 5080 4443 2890
4543 5080 4543 2890 4843 5080 4843 8120
9045 4350 8045 4328 9048 4350 8048 4328
904a 4350 804a 4382 1890 4b43 5080 4b43
8218 904a 4350 804a 4382 1890 4843 5080
4843 8670 9048 4350 8048 4328 9048 4350
8048 4381 2090 4843 5080 4843 8120 9048
4350 8048 4328 904a 4350 804a 4381 2090
4c43 5080 4c43 2890 4843 5080 4843 8120
9045 4350 8045 4328 9043 4350 8043 4383
1090 4843 5080 4843 2890 4843 5080 4843
8120 9048 4350 8048 4381 2090 4843 5080
4843 2890 4a43 5080 4a43 2890 4c43 5080
4c43 8768 9048 4350 8048 4328 9048 4350
8048 4381 2090 4843 5080 4843 8120 9048
4350 8048 4328 904a 4350 804a 4381 2090
4c43 5080 4c43 2890 4843 5080 4843 8120
9045 4350 8045 4328 9043 4350 8043 4383
1090 4c43 5080 4c43 2890 4c43 5080 4c43
8120 904c 4350 804c 4381 2090 4843 5080
4843 2890 4c43 5080 4c43 8120 904f 4350
804f 4386 7090 4843 5080 4843 8218 9043
4350 8043 4382 1890 4043 5080 4043 8218
9045 4350 8045 4381 2090 4743 5080 4743
8120 9046 4350 8046 4328 9045 4350 8045
4381 2090 4343 5080 4343 5090 4c43 5080
4c43 5090 4f43 5080 4f43 5090 5143 5080
5143 8120 904d 4350 804d 4328 904f 4350
804f 4381 2090 4c43 5080 4c43 8120 9048
4350 8048 4328 904a 4350 804a 4328 9047
4350 8047 4382 1890 4843 5080 4843 8218
9043 4350 8043 4382 1890 4043 5080 4043
8218 9045 4350 8045 4381 2090 4743 5080
4743 8120 9046 4350 8046 4328 9045 4350
8045 4381 2090 4343 5080 4343 5090 4c43
5080 4c43 5090 4f43 5080 4f43 5090 5143
5080 5143 8120 904d 4350 804d 4328 904f
4350 804f 4381 2090 4c43 5080 4c43 8120
9048 4350 8048 4328 904a 4350 804a 4328
9047 4350 8047 4382 1890 4c43 5080 4c43
2890 4843 5080 4843 8120 9043 4350 8043
4382 1890 4443 5080 4443 8120 9045 4350
8045 4328 904d 4350 804d 4381 2090 4d43
5080 4d43 2890 4543 5080 4543 8310 9047
4350 8047 4350 9051 4350 8051 4350 9051
4350 8051 4350 9051 4350 8051 4350 904f
4350 804f 4350 904d 4350 804d 4350 904c
4350 804c 4328 9048 4350 8048 4381 2090
4543 5080 4543 2890 4343 5080 4343 8310
904c 4350 804c 4328 9048 4350 8048 4381
2090 4343 5080 4343 8218 9044 4350 8044
4381 2090 4543 5080 4543 2890 4d43 5080
4d43 8120 904d 4350 804d 4328 9045 4350
8045 4383 1090 4743 5080 4743 2890 4d43
5080 4d43 8120 904d 4350 804d 4328 904d
4350 804d 4350 904c 4350 804c 4350 904a
4350 804a 4350 9048 4350 8048 4386 7090
4c43 5080 4c43 2890 4843 5080 4843 8120
9043 4350 8043 4382 1890 4443 5080 4443
8120 9045 4350 8045 4328 904d 4350 804d
4381 2090 4d43 5080 4d43 2890 4543 5080
4543 8310 9047 4350 8047 4350 9051 4350
8051 4350 9051 4350 8051 4350 9051 4350
8051 4350 904f 4350 804f 4350 904d 4350
804d 4350 904c 4350 804c 4328 9048 4350
8048 4381 2090 4543 5080 4543 2890 4343
5080 4343 8310 904c 4350 804c 4328 9048
4350 8048 4381 2090 4343 5080 4343 8218
9044 4350 8044 4381 2090 4543 5080 4543
2890 4d43 5080 4d43 8120 904d 4350 804d
4328 9045 4350 8045 4383 1090 4743 5080
4743 2890 4d43 5080 4d43 8120 904d 4350
804d 4328 904d 4350 804d 4350 904c 4350
804c 4350 904a 4350 804a 4350 9048 4350
8048 4386 7090 4843 5080 4843 2890 4843
5080 4843 8120 9048 4350 8048 4381 2090
4843 5080 4843 2890 4a43 5080 4a43 8120
904c 4350 804c 4328 9048 4350 8048 4381
2090 4543 5080 4543 2890 4343 5080 4343
8310 9048 4350 8048 4328 9048 4350 8048
4381 2090 4843 5080 4843 8120 9048 4350
8048 4328 904a 4350 804a 4328 904c 4350
804c 4387 6890 4843 5080 4843 2890 4843
5080 4843 8120 9048 4350 8048 4381 2090
4843 5080 4843 2890 4a43 5080 4a43 8120
904c 4350 804c 4328 9048 4350 8048 4381
2090 4543 5080 4543 2890 4343 5080 4343
8310 904c 4350 804c 4328 904c 4350 804c
4381 2090 4c43 5080 4c43 8120 9048 4350
8048 4328 904c 4350 804c 4381 2090 4f43
5080 4f43 8670 904c 4350 804c 4328 9048
4350 8048 4381 2090 4343 5080 4343 8218
9044 4350 8044 4381 2090 4543 5080 4543
2890 4d43 5080 4d43 8120 904d 4350 804d
4328 9045 4350 8045 4383 1090 4743 5080
4743 5090 5143 5080 5143 5090 5143 5080
5143 5090 5143 5080 5143 5090 4f43 5080
4f43 5090 4d43 5080 4d43 5090 4c43 5080
4c43 2890 4843 5080 4843 8120 9045 4350
8045 4328 9043 4350 8043 4383 1090 4c43
5080 4c43 2890 4843 5080 4843 8120 9043
4350 8043 4382 1890 4443 5080 4443 8120
9045 4350 8045 4328 904d 4350 804d 4381
2090 4d43 5080 4d43 2890 4543 5080 4543
8310 9047 4350 8047 4328 904d 4350 804d
4381 2090 4d43 5080 4d43 2890 4d43 5080
4d43 5090 4c43 5080 4c43 5090 4a43 5080
4a43 5090 4843 5080 4843 00ff 2f00 4d54
726b 0000 0a84 00ff 030b 4d49 4449 2052
6567 696f 6e00 ff04 1352 6576 6572 7365
2045 6e67 696e 6565 7269 6e67 00b1 0000
00c1 5000 9142 4350 8142 4328 9142 4350
8142 4381 2091 4243 5081 4243 8120 9142
4350 8142 4328 9142 4350 8142 4381 2091
4743 5081 4743 8310 9143 4350 8143 4383
1091 4043 5081 4043 8218 913c 4350 813c
4382 1891 3743 5081 3743 8218 913c 4350
813c 4381 2091 3e43 5081 3e43 8120 913d
4350 813d 4328 913c 4350 813c 4381 2091
3c43 5081 3c43 5091 4343 5081 4343 5091
4743 5081 4743 5091 4843 5081 4843 8120
9145 4350 8145 4328 9147 4350 8147 4381
2091 4543 5081 4543 8120 9140 4350 8140
4328 9141 4350 8141 4328 913e 4350 813e
4382 1891 4043 5081 4043 8218 913c 4350
813c 4382 1891 3743 5081 3743 8218 913c
4350 813c 4381 2091 3e43 5081 3e43 8120
913d 4350 813d 4328 913c 4350 813c 4381
2091 3c43 5081 3c43 5091 4343 5081 4343
5091 4743 5081 4743 5091 4843 5081 4843
8120 9145 4350 8145 4328 9147 4350 8147
4381 2091 4543 5081 4543 8120 9140 4350
8140 4328 9141 4350 8141 4328 913e 4350
813e 4384 0891 4c43 5081 4c43 2891 4b43
5081 4b43 2891 4a43 5081 4a43 2891 4743
5081 4743 8120 9148 4350 8148 4381 2091
4043 5081 4043 2891 4143 5081 4143 2891
4343 5081 4343 8120 913c 4350 813c 4328
9140 4350 8140 4328 9141 4350 8141 4382
1891 4c43 5081 4c43 2891 4b43 5081 4b43
2891 4a43 5081 4a43 2891 4743 5081 4743
8120 9148 4350 8148 4381 2091 4d43 5081
4d43 8120 914d 4350 814d 4328 914d 4350
814d 4385 0091 4c43 5081 4c43 2891 4b43
5081 4b43 2891 4a43 5081 4a43 2891 4743
5081 4743 8120 9148 4350 8148 4381 2091
4043 5081 4043 2891 4143 5081 4143 2891
4343 5081 4343 8120 913c 4350 813c 4328
9140 4350 8140 4328 9141 4350 8141 4382
1891 4443 5081 4443 8218 9141 4350 8141
4382 1891 4043 5081 4043 8860 914c 4350
814c 4328 914b 4350 814b 4328 914a 4350
814a 4328 9147 4350 8147 4381 2091 4843
5081 4843 8120 9140 4350 8140 4328 9141
4350 8141 4328 9143 4350 8143 4381 2091
3c43 5081 3c43 2891 4043 5081 4043 2891
4143 5081 4143 8218 914c 4350 814c 4328
914b 4350 814b 4328 914a 4350 814a 4328
9147 4350 8147 4381 2091 4843 5081 4843
8120 914d 4350 814d 4381 2091 4d43 5081
4d43 2891 4d43 5081 4d43 8500 914c 4350
814c 4328 914b 4350 814b 4328 914a 4350
814a 4328 9147 4350 8147 4381 2091 4843
5081 4843 8120 9140 4350 8140 4328 9141
4350 8141 4328 9143 4350 8143 4381 2091
3c43 5081 3c43 2891 4043 5081 4043 2891
4143 5081 4143 8218 9144 4350 8144 4382
1891 4143 5081 4143 8218 9140 4350 8140
4386 7091 4443 5081 4443 2891 4443 5081
4443 8120 9144 4350 8144 4381 2091 4443
5081 4443 2891 4643 5081 4643 8120 9143
4350 8143 4328 9140 4350 8140 4381 2091
4043 5081 4043 2891 3c43 5081 3c43 8310
9144 4350 8144 4328 9144 4350 8144 4381
2091 4443 5081 4443 8120 9144 4350 8144
4328 9146 4350 8146 4328 9143 4350 8143
4387 6891 4443 5081 4443 2891 4443 5081
4443 8120 9144 4350 8144 4381 2091 4443
5081 4443 2891 4643 5081 4643 8120 9143
4350 8143 4328 9140 4350 8140 4381 2091
4043 5081 4043 2891 3c43 5081 3c43 8310
9142 4350 8142 4328 9142 4350 8142 4381
2091 4243 5081 4243 8120 9142 4350 8142
4328 9142 4350 8142 4381 2091 4743 5081
4743 8310 9143 4350 8143 4383 1091 4043
5081 4043 8218 913c 4350 813c 4382 1891
3743 5081 3743 8218 913c 4350 813c 4381
2091 3e43 5081 3e43 8120 913d 4350 813d
4328 913c 4350 813c 4381 2091 3c43 5081
3c43 5091 4343 5081 4343 5091 4743 5081
4743 5091 4843 5081 4843 8120 9145 4350
8145 4328 9147 4350 8147 4381 2091 4543
5081 4543 8120 9140 4350 8140 4328 9141
4350 8141 4328 913e 4350 813e 4382 1891
4043 5081 4043 8218 913c 4350 813c 4382
1891 3743 5081 3743 8218 913c 4350 813c
4381 2091 3e43 5081 3e43 8120 913d 4350
813d 4328 913c 4350 813c 4381 2091 3c43
5081 3c43 5091 4343 5081 4343 5091 4743
5081 4743 5091 4843 5081 4843 8120 9145
4350 8145 4328 9147 4350 8147 4381 2091
4543 5081 4543 8120 9140 4350 8140 4328
9141 4350 8141 4328 913e 4350 813e 4382
1891 4843 5081 4843 2891 4543 5081 4543
8120 9140 4350 8140 4382 1891 4043 5081
4043 8120 9141 4350 8141 4328 9148 4350
8148 4381 2091 4843 5081 4843 2891 4143
5081 4143 8310 9143 4350 8143 4350 914d
4350 814d 4350 914d 4350 814d 4350 914d
4350 814d 4350 914c 4350 814c 4350 914a
4350 814a 4350 9148 4350 8148 4328 9145
4350 8145 4381 2091 4143 5081 4143 2891
4043 5081 4043 8310 9148 4350 8148 4328
9145 4350 8145 4381 2091 4043 5081 4043
8218 9140 4350 8140 4381 2091 4143 5081
4143 2891 4843 5081 4843 8120 9148 4350
8148 4328 9141 4350 8141 4383 1091 4343
5081 4343 2891 4a43 5081 4a43 8120 914a
4350 814a 4328 914a 4350 814a 4350 9148
4350 8148 4350 9147 4350 8147 4350 9143
4350 8143 4328 9140 4350 8140 4381 2091
4043 5081 4043 2891 3c43 5081 3c43 8310
9148 4350 8148 4328 9145 4350 8145 4381
2091 4043 5081 4043 8218 9140 4350 8140
4381 2091 4143 5081 4143 2891 4843 5081
4843 8120 9148 4350 8148 4328 9141 4350
8141 4383 1091 4343 5081 4343 5091 4d43
5081 4d43 5091 4d43 5081 4d43 5091 4d43
5081 4d43 5091 4c43 5081 4c43 5091 4a43
5081 4a43 5091 4843 5081 4843 2891 4543
5081 4543 8120 9141 4350 8141 4328 9140
4350 8140 4383 1091 4843 5081 4843 2891
4543 5081 4543 8120 9140 4350 8140 4382
1891 4043 5081 4043 8120 9141 4350 8141
4328 9148 4350 8148 4381 2091 4843 5081
4843 2891 4143 5081 4143 8310 9143 4350
8143 4328 914a 4350 814a 4381 2091 4a43
5081 4a43 2891 4a43 5081 4a43 5091 4843
5081 4843 5091 4743 5081 4743 5091 4343
5081 4343 2891 4043 5081 4043 8120 9140
4350 8140 4328 913c 4350 813c 4383 1091
4443 5081 4443 2891 4443 5081 4443 8120
9144 4350 8144 4381 2091 4443 5081 4443
2891 4643 5081 4643 8120 9143 4350 8143
4328 9140 4350 8140 4381 2091 4043 5081
4043 2891 3c43 5081 3c43 8310 9144 4350
8144 4328 9144 4350 8144 4381 2091 4443
5081 4443 8120 9144 4350 8144 4328 9146
4350 8146 4328 9143 4350 8143 4387 6891
4443 5081 4443 2891 4443 5081 4443 8120
9144 4350 8144 4381 2091 4443 5081 4443
2891 4643 5081 4643 8120 9143 4350 8143
4328 9140 4350 8140 4381 2091 4043 5081
4043 2891 3c43 5081 3c43 8310 9142 4350
8142 4328 9142 4350 8142 4381 2091 4243
5081 4243 8120 9142 4350 8142 4328 9142
4350 8142 4381 2091 4743 5081 4743 8310
9143 4350 8143 4383 1091 4843 5081 4843
2891 4543 5081 4543 8120 9140 4350 8140
4382 1891 4043 5081 4043 8120 9141 4350
8141 4328 9148 4350 8148 4381 2091 4843
5081 4843 2891 4143 5081 4143 8310 9143
4350 8143 4350 914d 4350 814d 4350 914d
4350 814d 4350 914d 4350 814d 4350 914c
4350 814c 4350 914a 4350 814a 4350 9148
4350 8148 4328 9145 4350 8145 4381 2091
4143 5081 4143 2891 4043 5081 4043 8310
9148 4350 8148 4328 9145 4350 8145 4381
2091 4043 5081 4043 8218 9140 4350 8140
4381 2091 4143 5081 4143 2891 4843 5081
4843 8120 9148 4350 8148 4328 9141 4350
8141 4383 1091 4343 5081 4343 2891 4a43
5081 4a43 8120 914a 4350 814a 4328 914a
4350 814a 4350 9148 4350 8148 4350 9147
4350 8147 4350 9143 4350 8143 4328 9140
4350 8140 4381 2091 4043 5081 4043 2891
3c43 5081 3c43 00ff 2f00 4d54 726b 0000
0a0a 00ff 030b 4d49 4449 2052 6567 696f
6e00 ff04 0823 6465 6661 756c 7400 b200
0000 c21a 0092 3249 5082 3249 2892 3249
5082 3249 8120 9232 4950 8232 4981 2092
3249 5082 3249 2892 3249 5082 3249 8120
9243 4950 8243 4983 1092 3749 5082 3749
8310 9237 4950 8237 4982 1892 3449 5082
3449 8218 9230 4950 8230 4982 1892 3549
5082 3549 8120 9237 4950 8237 4981 2092
3649 5082 3649 2892 3549 5082 3549 8120
9234 4950 8234 4950 923c 4950 823c 4950
9240 4950 8240 4950 9241 4950 8241 4981
2092 3e49 5082 3e49 2892 4049 5082 4049
8120 923c 4950 823c 4981 2092 3949 5082
3949 2892 3b49 5082 3b49 2892 3749 5082
3749 8218 9237 4950 8237 4982 1892 3449
5082 3449 8218 9230 4950 8230 4982 1892
3549 5082 3549 8120 9237 4950 8237 4981
2092 3649 5082 3649 2892 3549 5082 3549
8120 9234 4950 8234 4950 923c 4950 823c
4950 9240 4950 8240 4950 9241 4950 8241
4981 2092 3e49 5082 3e49 2892 4049 5082
4049 8120 923c 4950 823c 4981 2092 3949
5082 3949 2892 3b49 5082 3b49 2892 3749
5082 3749 8218 9230 4950 8230 4982 1892
3749 5082 3749 8218 923c 4950 823c 4981
2092 3549 5082 3549 8218 923c 4950 823c
4928 923c 4950 823c 4981 2092 3549 5082
3549 8120 9230 4950 8230 4982 1892 3449
5082 3449 8218 9237 4950 8237 4928 923c
4950 823c 4981 2092 4f49 5082 4f49 8120
924f 4950 824f 4928 924f 4950 824f 4981
2092 3749 5082 3749 8120 9230 4950 8230
4982 1892 3749 5082 3749 8218 923c 4950
823c 4981 2092 3549 5082 3549 8218 923c
4950 823c 4928 923c 4950 823c 4981 2092
3549 5082 3549 8120 9230 4950 8230 4981
2092 3849 5082 3849 8218 923a 4950 823a
4982 1892 3c49 5082 3c49 8218 9237 4950
8237 4928 9237 4950 8237 4981 2092 3049
5082 3049 8120 9230 4950 8230 4982 1892
3749 5082 3749 8218 923c 4950 823c 4981
2092 3549 5082 3549 8218 923c 4950 823c
4928 923c 4950 823c 4981 2092 3549 5082
3549 8120 9230 4950 8230 4982 1892 3449
5082 3449 8218 9237 4950 8237 4928 923c
4950 823c 4981 2092 4f49 5082 4f49 8120
924f 4950 824f 4928 924f 4950 824f 4981
2092 3749 5082 3749 8120 9230 4950 8230
4982 1892 3749 5082 3749 8218 923c 4950
823c 4981 2092 3549 5082 3549 8218 923c
4950 823c 4928 923c 4950 823c 4981 2092
3549 5082 3549 8120 9230 4950 8230 4981
2092 3849 5082 3849 8218 923a 4950 823a
4982 1892 3c49 5082 3c49 8218 9237 4950
8237 4928 9237 4950 8237 4981 2092 3049
5082 3049 8120 922c 4950 822c 4982 1892
3349 5082 3349 8218 9238 4950 8238 4981
2092 3749 5082 3749 8218 9230 4950 8230
4982 1892 2b49 5082 2b49 8120 922c 4950
822c 4982 1892 3349 5082 3349 8218 9238
4950 8238 4981 2092 3749 5082 3749 8218
9230 4950 8230 4982 1892 2b49 5082 2b49
8120 922c 4950 822c 4982 1892 3349 5082
3349 8218 9238 4950 8238 4981 2092 3749
5082 3749 8218 9230 4950 8230 4982 1892
2b49 5082 2b49 8120 9232 4950 8232 4928
9232 4950 8232 4981 2092 3249 5082 3249
8120 9232 4950 8232 4928 9232 4950 8232
4981 2092 4349 5082 4349 8310 9237 4950
8237 4983 1092 3749 5082 3749 8218 9234
4950 8234 4982 1892 3049 5082 3049 8218
9235 4950 8235 4981 2092 3749 5082 3749
8120 9236 4950 8236 4928 9235 4950 8235
4981 2092 3449 5082 3449 5092 3c49 5082
3c49 5092 4049 5082 4049 5092 4149 5082
4149 8120 923e 4950 823e 4928 9240 4950
8240 4981 2092 3c49 5082 3c49 8120 9239
4950 8239 4928 923b 4950 823b 4928 9237
4950 8237 4982 1892 3749 5082 3749 8218
9234 4950 8234 4982 1892 3049 5082 3049
8218 9235 4950 8235 4981 2092 3749 5082
3749 8120 9236 4950 8236 4928 9235 4950
8235 4981 2092 3449 5082 3449 5092 3c49
5082 3c49 5092 4049 5082 4049 5092 4149
5082 4149 8120 923e 4950 823e 4928 9240
4950 8240 4981 2092 3c49 5082 3c49 8120
9239 4950 8239 4928 923b 4950 823b 4928
9237 4950 8237 4982 1892 3049 5082 3049
8218 9236 4950 8236 4928 9237 4950 8237
4981 2092 3c49 5082 3c49 8120 9235 4950
8235 4981 2092 3549 5082 3549 8120 923c
4950 823c 4928 923c 4950 823c 4928 9235
4950 8235 4981 2092 3249 5082 3249 8218
9235 4950 8235 4928 9237 4950 8237 4981
2092 3b49 5082 3b49 8120 9237 4950 8237
4981 2092 3749 5082 3749 8120 923c 4950
823c 4928 923c 4950 823c 4928 9237 4950
8237 4981 2092 3049 5082 3049 8218 9236
4950 8236 4928 9237 4950 8237 4981 2092
3c49 5082 3c49 8120 9235 4950 8235 4981
2092 3549 5082 3549 8120 923c 4950 823c
4928 923c 4950 823c 4928 9235 4950 8235
4981 2092 3749 5082 3749 2892 3749 5082
3749 8120 9237 4950 8237 4928 9237 4950
8237 4950 9239 4950 8239 4950 923b 4950
823b 4950 923c 4950 823c 4981 2092 3749
5082 3749 8120 9230 4950 8230 4983 1092
3049 5082 3049 8218 9236 4950 8236 4928
9237 4950 8237 4981 2092 3c49 5082 3c49
8120 9235 4950 8235 4981 2092 3549 5082
3549 8120 923c 4950 823c 4928 923c 4950
823c 4928 9235 4950 8235 4981 2092 3249
5082 3249 8218 9235 4950 8235 4928 9237
4950 8237 4981 2092 3b49 5082 3b49 8120
9237 4950 8237 4981 2092 3749 5082 3749
8120 923c 4950 823c 4928 923c 4950 823c
4928 9237 4950 8237 4981 2092 3049 5082
3049 8218 9236 4950 8236 4928 9237 4950
8237 4981 2092 3c49 5082 3c49 8120 9235
4950 8235 4981 2092 3549 5082 3549 8120
923c 4950 823c 4928 923c 4950 823c 4928
9235 4950 8235 4981 2092 3749 5082 3749
2892 3749 5082 3749 8120 9237 4950 8237
4928 9237 4950 8237 4950 9239 4950 8239
4950 923b 4950 823b 4950 923c 4950 823c
4981 2092 3749 5082 3749 8120 9230 4950
8230 4983 1092 2c49 5082 2c49 8218 9233
4950 8233 4982 1892 3849 5082 3849 8120
9237 4950 8237 4982 1892 3049 5082 3049
8218 922b 4950 822b 4981 2092 2c49 5082
2c49 8218 9233 4950 8233 4982 1892 3849
5082 3849 8120 9237 4950 8237 4982 1892
3049 5082 3049 8218 922b 4950 822b 4981
2092 2c49 5082 2c49 8218 9233 4950 8233
4982 1892 3849 5082 3849 8120 9237 4950
8237 4982 1892 3049 5082 3049 8218 922b
4950 822b 4981 2092 3249 5082 3249 2892
3249 5082 3249 8120 9232 4950 8232 4981
2092 3249 5082 3249 2892 3249 5082 3249
8120 9243 4950 8243 4983 1092 3749 5082
3749 8310 9230 4950 8230 4982 1892 3649
5082 3649 2892 3749 5082 3749 8120 923c
4950 823c 4981 2092 3549 5082 3549 8120
9235 4950 8235 4981 2092 3c49 5082 3c49
2892 3c49 5082 3c49 2892 3549 5082 3549
8120 9232 4950 8232 4982 1892 3549 5082
3549 2892 3749 5082 3749 8120 923b 4950
823b 4981 2092 3749 5082 3749 8120 9237
4950 8237 4981 2092 3c49 5082 3c49 2892
3c49 5082 3c49 2892 3749 5082 3749 8120
9230 4950 8230 4982 1892 3649 5082 3649
2892 3749 5082 3749 8120 923c 4950 823c
4981 2092 3549 5082 3549 8120 9235 4950
8235 4981 2092 3c49 5082 3c49 2892 3c49
5082 3c49 2892 3549 5082 3549 8120 9237
4950 8237 4928 9237 4950 8237 4981 2092
3749 5082 3749 2892 3749 5082 3749 5092
3949 5082 3949 5092 3b49 5082 3b49 5092
3c49 5082 3c49 8120 9237 4950 8237 4981
2092 3049 5082 3049 00ff 2f00 4d54 726b
0000 0cbb 00ff 030b 4d49 4449 2052 6567
696f 6e00 ff04 1055 6e64 6572 7761 7465
7220 4c61 7365 7200 b300 0000 c37f 0093
4317 8120 8343 1750 9343 1750 8343 1728
9343 1781 2083 4317 5093 4317 5083 4317
2893 4317 8120 8343 1750 9343 1781 2083
4317 8148 9343 1781 2083 4317 5093 4317
5083 4317 2893 4317 5083 4317 2893 4317
5083 4317 2893 4317 5083 4317 8120 9343
1750 8343 1750 9343 1750 9343 1700 8343
1781 2083 4317 5093 4317 5083 4317 5093
4317 5093 4317 0083 4317 5083 4317 8120
9343 1750 8343 1750 9343 1750 9343 1700
8343 1781 2083 4317 5093 4317 5083 4317
5093 4317 5093 4317 0083 4317 5083 4317
8120 9343 1750 8343 1750 9343 1750 9343
1700 8343 1781 2083 4317 5093 4317 5083
4317 5093 4317 5093 4317 0083 4317 5083
4317 8120 9343 1750 8343 1750 9343 1750
9343 1700 8343 1781 2083 4317 5093 4317
5083 4317 5093 4317 5093 4317 0083 4317
5083 4317 8120 9343 1750 8343 1750 9343
1750 9343 1700 8343 1781 2083 4317 5093
4317 5083 4317 5093 4317 5093 4317 0083
4317 5083 4317 8120 9343 1750 8343 1750
9343 1750 9343 1700 8343 1781 2083 4317
5093 4317 5083 4317 5093 4317 5093 4317
0083 4317 5083 4317 8120 9343 1750 8343
1750 9343 1750 9343 1700 8343 1781 2083
4317 5093 4317 5083 4317 5093 4317 5093
4317 0083 4317 5083 4317 8120 9343 1750
8343 1750 9343 1750 9343 1700 8343 1781
2083 4317 5093 4317 5083 4317 5093 4317
5093 4317 0083 4317 5083 4317 8120 9343
1750 8343 1750 9343 1750 9343 1700 8343
1781 2083 4317 5093 4317 5083 4317 5093
4317 5093 4317 0083 4317 5083 4317 8120
9343 1750 8343 1750 9343 1750 9343 1700
8343 1781 2083 4317 5093 4317 5083 4317
5093 4317 5093 4317 0083 4317 5083 4317
8120 9343 1750 8343 1750 9343 1750 9343
1700 8343 1781 2083 4317 5093 4317 5083
4317 5093 4317 5093 4317 0083 4317 5083
4317 8120 9343 1750 8343 1750 9343 1750
9343 1700 8343 1781 2083 4317 5093 4317
5083 4317 5093 4317 5093 4317 0083 4317
5083 4317 8120 9343 1750 8343 1750 9343
1750 9343 1700 8343 1781 2083 4317 5093
4317 5083 4317 5093 4317 5093 4317 0083
4317 5083 4317 8120 9343 1750 8343 1750
9343 1750 9343 1700 8343 1781 2083 4317
5093 4317 5083 4317 5093 4317 5093 4317
0083 4317 5083 4317 8120 9343 1750 8343
1750 9343 1750 9343 1700 8343 1781 2083
4317 5093 4317 5083 4317 5093 4317 5093
4317 0083 4317 5083 4317 8120 9343 1750
8343 1750 9343 1750 9343 1700 8343 1781
2083 4317 5093 4317 5083 4317 5093 4317
5093 4317 0083 4317 5083 4317 8120 9343
1750 8343 1750 9343 1750 9343 1700 8343
1781 2083 4317 5093 4317 5083 4317 5093
4317 5093 4317 0083 4317 5083 4317 8120
9343 1750 8343 1750 9343 1750 9343 1700
8343 1781 2083 4317 5093 4317 5083 4317
5093 4317 5093 4317 0083 4317 5083 4317
8120 9343 1750 8343 1750 9343 1750 9343
1700 8343 1781 2083 4317 5093 4317 5083
4317 5093 4317 5093 4317 0083 4317 5083
4317 8120 9343 1750 8343 1750 9343 1750
9343 1700 8343 1781 2083 4317 5093 4317
5083 4317 5093 4317 5093 4317 0083 4317
5083 4317 8120 9343 1750 8343 1750 9343
1750 9343 1700 8343 1781 2083 4317 5093
4317 5083 4317 5093 4317 5093 4317 0083
4317 5083 4317 8120 9343 1750 8343 1750
9343 1750 9343 1700 8343 1781 2083 4317
5093 4317 5083 4317 5093 4317 5093 4317
0083 4317 5083 4317 8120 9343 1750 8343
1750 9343 1750 9343 1700 8343 1781 2083
4317 5093 4317 5083 4317 5093 4317 5093
4317 0083 4317 5083 4317 8120 9343 1750
8343 1750 9343 1750 9343 1700 8343 1781
2083 4317 5093 4317 5083 4317 5093 4317
5093 4317 0083 4317 8120 8343 1750 9343
1750 8343 1728 9343 1781 2083 4317 5093
4317 5083 4317 2893 4317 8120 8343 1750
9343 1781 2083 4317 8148 9343 1781 2083
4317 5093 4317 5083 4317 2893 4317 5083
4317 2893 4317 5083 4317 2893 4317 8120
8343 1750 9343 1750 8343 1728 9343 1781
2083 4317 5093 4317 5083 4317 2893 4317
8120 8343 1750 9343 1781 2083 4317 8148
9343 1781 2083 4317 5093 4317 5083 4317
2893 4317 5083 4317 2893 4317 5083 4317
2893 4317 8120 8343 1750 9343 1750 8343
1728 9343 1781 2083 4317 5093 4317 5083
4317 2893 4317 8120 8343 1750 9343 1781
2083 4317 8148 9343 1781 2083 4317 5093
4317 5083 4317 2893 4317 5083 4317 2893
4317 5083 4317 2893 4317 8120 8343 1750
9343 1750 8343 1728 9343 1781 2083 4317
5093 4317 5083 4317 2893 4317 8120 8343
1750 9343 1781 2083 4317 8148 9343 1781
2083 4317 5093 4317 5083 4317 2893 4317
5083 4317 2893 4317 5083 4317 2893 4317
5083 4317 8120 9343 1750 8343 1750 9343
1750 9343 1700 8343 1781 2083 4317 5093
4317 5083 4317 5093 4317 5093 4317 0083
4317 5083 4317 8120 9343 1750 8343 1750
9343 1750 9343 1700 8343 1781 2083 4317
5093 4317 5083 4317 5093 4317 5093 4317
0083 4317 5083 4317 8120 9343 1750 8343
1750 9343 1750 9343 1700 8343 1781 2083
4317 5093 4317 5083 4317 5093 4317 5093
4317 0083 4317 5083 4317 8120 9343 1750
8343 1750 9343 1750 9343 1700 8343 1781
2083 4317 5093 4317 5083 4317 5093 4317
5093 4317 0083 4317 5083 4317 8120 9343
1750 8343 1750 9343 1750 9343 1700 8343
1781 2083 4317 5093 4317 5083 4317 5093
4317 5093 4317 0083 4317 5083 4317 8120
9343 1750 8343 1750 9343 1750 9343 1700
8343 1781 2083 4317 5093 4317 5083 4317
5093 4317 5093 4317 0083 4317 5083 4317
8120 9343 1750 8343 1750 9343 1750 9343
1700 8343 1781 2083 4317 5093 4317 5083
4317 5093 4317 5093 4317 0083 4317 5083
4317 8120 9343 1750 8343 1750 9343 1750
9343 1700 8343 1781 2083 4317 5093 4317
5083 4317 5093 4317 5093 4317 0083 4317
5083 4317 8218 9343 1750 8343 1728 9343
1781 2083 4317 5093 4317 5083 4317 8120
9343 1750 8343 1782 1893 4317 5083 4317
2893 4317 8120 8343 1750 9343 1750 8343
1781 2093 4317 5083 4317 8218 9343 1750
8343 1728 9343 1781 2083 4317 5093 4317
5083 4317 8120 9343 1750 8343 1782 1893
4317 5083 4317 2893 4317 8120 8343 1750
9343 1750 8343 1781 2093 4317 5083 4317
8218 9343 1750 8343 1728 9343 1781 2083
4317 5093 4317 5083 4317 8120 9343 1750
8343 1782 1893 4317 5083 4317 2893 4317
8120 8343 1750 9343 1750 8343 1781 2093
4317 5083 4317 8218 9343 1750 8343 1728
9343 1781 2083 4317 5093 4317 5083 4317
8120 9343 1750 8343 1782 1893 4317 5083
4317 2893 4317 8120 8343 1750 9343 1750
8343 1781 2093 4317 5083 4317 8218 9343
1750 8343 1728 9343 1781 2083 4317 5093
4317 5083 4317 8120 9343 1750 8343 1782
1893 4317 5083 4317 2893 4317 8120 8343
1750 9343 1750 8343 1781 2093 4317 5083
4317 8218 9343 1750 8343 1728 9343 1781
2083 4317 5093 4317 5083 4317 8120 9343
1750 8343 1782 1893 4317 5083 4317 2893
4317 8120 8343 1750 9343 1750 8343 1781
2093 4317 5083 4317 8218 9343 1750 8343
1728 9343 1781 2083 4317 5093 4317 5083
4317 8120 9343 1750 8343 1782 1893 4317
5083 4317 2893 4317 8120 8343 1750 9343
1750 8343 1781 2093 4317 5083 4317 8218
9343 1750 8343 1728 9343 1781 2083 4317
5093 4317 5083 4317 8120 9343 1750 8343
1782 1893 4317 5083 4317 2893 4317 8120
8343 1750 9343 1750 8343 1781 2093 4317
8120 8343 1750 9343 1750 8343 1728 9343
1781 2083 4317 5093 4317 5083 4317 2893
4317 8120 8343 1750 9343 1781 2083 4317
8148 9343 1781 2083 4317 5093 4317 5083
4317 2893 4317 5083 4317 2893 4317 5083
4317 2893 4317 8120 8343 1750 9343 1750
8343 1728 9343 1781 2083 4317 5093 4317
5083 4317 2893 4317 8120 8343 1750 9343
1781 2083 4317 8148 9343 1781 2083 4317
5093 4317 5083 4317 2893 4317 5083 4317
2893 4317 5083 4317 2893 4317 8120 8343
1750 9343 1750 8343 1728 9343 1781 2083
4317 5093 4317 5083 4317 2893 4317 8120
8343 1750 9343 1781 2083 4317 8148 9343
1781 2083 4317 5093 4317 5083 4317 2893
4317 5083 4317 2893 4317 5083 4317 2893
4317 8120 8343 1750 9343 1750 8343 1728
9343 1781 2083 4317 5093 4317 5083 4317
2893 4317 8120 8343 1750 9343 1781 2083
4317 8148 9343 1781 2083 4317 5093 4317
5083 4317 2893 4317 5083 4317 2893 4317
5083 4317 2893 4317 5083 4317 8218 9343
1750 8343 1728 9343 1781 2083 4317 5093
4317 5083 4317 8120 9343 1750 8343 1782
1893 4317 5083 4317 2893 4317 8120 8343
1750 9343 1750 8343 1781 2093 4317 5083
4317 8218 9343 1750 8343 1728 9343 1781
2083 4317 5093 4317 5083 4317 8120 9343
1750 8343 1782 1893 4317 5083 4317 2893
4317 8120 8343 1750 9343 1750 8343 1781
2093 4317 5083 4317 8218 9343 1750 8343
1728 9343 1781 2083 4317 5093 4317 5083
4317 8120 9343 1750 8343 1782 1893 4317
5083 4317 2893 4317 8120 8343 1750 9343
1750 8343 1781 2093 4317 5083 4317 8218
9343 1750 8343 1728 9343 1781 2083 4317
5093 4317 5083 4317 8120 9343 1750 8343
1782 1893 4317 5083 4317 2893 4317 8120
8343 1750 9343 1750 8343 1700 ff2f 00