4d54 6864 0000 0006 0001 0002 03c0 4d54
726b 0000 0027 00ff 5103 07a1 2000 ff59
0200 0000 ff03 0a50 6f6c 7970 686f 6e79
3300 ff58 0404 0218 0800 ff2f 004d 5472
6b00 0000 7200 b000 0000 2000 00c0 0000
ff03 0855 6e74 6974 6c65 6400 b007 7f9e
0090 4350 003c 5000 4050 b440 8043 0000
3c00 0040 0087 4090 4450 003b 5000 4050
003e 50b4 4080 4400 003b 0000 4000 003e
0087 4090 4550 0039 5000 3c50 0040 50b4
4080 4500 0039 0000 3c00 0040 0081 9d3f
b07f 0000 ff2f 00