4d54 6864 0000 0006 0001 0003 03c0 4d54
726b 0000 0027 00ff 5103 07a1 2000 ff59
0200 0000 ff03 0a50 6f6c 7970 686f 6e79
3400 ff58 0404 0218 0800 ff2f 004d 5472
6b00 0000 b300 b000 0000 2000 00c0 0000
ff03 0855 6e74 6974 6c65 6400 b007 7f00
903c 5000 4050 0043 50b4 4080 4000 0043
0000 3c00 8740 9044 5000 3b50 0040 5000
3e50 b440 803b 0000 4000 003e 0000 4400
8740 9039 5000 3c50 0040 50b4 4080 3c00
0040 0000 3900 8740 903c 5000 3a50 0040
5000 4350 b440 803a 0000 4000 0043 0000
3c00 8740 903c 5000 4550 0041 50b4 4080
3c00 0041 0000 4500 8740 9044 5000 4150
003e 5000 3c50 b440 8044 0000 4100 003e
0000 3c00 00ff 2f00 4d54 726b 0000 008a
00b1 0000 0020 0000 c100 00ff 0308 556e
7469 746c 6564 00b1 077f 0091 4850 9e00
8148 0000 9143 509e 0081 4300 0091 4750
9e00 8147 0000 9144 509e 0081 4400 0091
4550 9e00 8145 0000 9148 509e 0081 4800
0091 4c50 9e00 814c 0000 9146 509e 0081
4600 0091 4850 9e00 8148 0000 914d 509e
0081 4d00 0091 4d50 9e00 814d 0000 914d
509e 0081 4d00 00ff 2f00 