4d54 6864 0000 0006 0001 0004 03c0 4d54
726b 0000 0027 00ff 5103 0493 e000 ff59
0200 0000 ff03 0a50 6f6c 7970 686f 6e79
3200 ff58 0404 0218 0800 ff2f 004d 5472
6b00 0000 4b00 b000 0000 2000 00c0 0000
ff03 0855 6e74 6974 6c65 6400 b007 7f9e
0090 4c50 b440 804c 0087 4090 4d50 b440
804d 0087 4090 4c50 b440 804c 0087 4090
4a50 b440 804a 00e1 3fb0 7f00 00ff 2f00
4d54 726b 0000 004b 00b1 0000 0020 0000
c100 00ff 0308 556e 7469 746c 6564 00b1
077f 9e00 9148 50b4 4081 4800 8740 9148
50b4 4081 4800 8740 9148 50b4 4081 4800
8740 9147 50b4 4081 4700 e13f b07f 0000
ff2f 004d 5472 6b00 0000 4b00 b200 0000
2000 00c2 0000 ff03 0855 6e74 6974 6c65
6400 b207 7f9e 0092 4550 b440 8245 0087
4092 4550 b440 8245 0087 4092 4350 b440
8243 0087 4092 4350 b440 8243 00e1 3fb0
7f00 00ff 2f00 