4d54 6864 0000 0006 0000 0001 01e0 4d54
726b 0000 0e73 00ff 0314 4c65 6164 2047
7569 7461 7220 2020 2020 2020 2020 00ff
0409 4861 7264 2052 6f63 6b00 ff58 0404
0218 0800 ff59 0200 0000 ff54 0520 0000
0000 00ff 5103 07a1 2000 b400 0000 c41e
00b4 5d00 005b 6500 0a40 835b b479 000f
b407 640f b464 0014 b465 0005 b406 020f
b40b 6483 1fc4 0087 40b4 5b7f 8f00 c41e
9e28 c41e 8f00 9431 4905 9438 6600 3d66
8120 843d 4005 8431 4000 3840 8564 9431
4d05 9438 6605 943d 6664 8431 4014 843d
4005 8438 4081 6194 2f45 0a94 3666 003b
6678 842f 4000 3640 003b 4081 7594 3866
003d 6681 2a84 3840 003d 4088 0b94 3146
0a94 3866 0594 3d66 4b84 3140 3284 3840
0a84 3d40 816b 942f 5105 943b 6605 9436
6669 8436 4000 3b40 0a84 2f40 8175 943d
6405 9438 6681 1684 3840 003d 4087 6d94
3d45 1494 383a 7384 3840 003d 4082 0494
3466 0594 3843 0594 2c52 0084 3840 0a94
3814 0584 3840 5f84 2c40 0034 4081 7f94
395f 0594 2d4e 0034 668c 6884 3440 0039
400a 842d 4083 5b94 3d66 0f94 3866 810c
8438 4000 3d40 860c 9431 520f 9438 6605
943d 3905 943f 0123 843f 4050 8438 4000
3d40 0584 3140 8161 942f 440a 9436 6600
3b63 6e84 3b40 0a84 2f40 0036 4081 6b94
314e 0594 3d66 0594 3866 8111 843d 400a
8431 4000 3840 8a0a 9431 5a0a 9438 6500
3d4b 8120 8431 4000 3840 003d 4081 4894
2f51 0a94 3b32 0594 3666 7384 2f40 0a84
3640 003b 4081 7094 3150 0f94 3d4e 0594
3866 004b 153c 844b 4050 8431 4000 3840
003d 4085 7394 313d 003d 4905 9438 5e78
8438 4005 8431 4000 3d40 8166 942c 3e00
3466 0038 4f32 8438 4005 9438 1b05 8438
4037 9438 270a 9434 2700 8434 4000 3840
0584 2c40 0034 4005 942c 2705 842c 4081
3994 3301 0a84 3340 1994 2d4e 0a94 3961
0a94 3466 0584 3440 8c7c 8439 4005 842d
4083 4794 314f 0a94 3866 003d 5b0a 8438
4081 0c84 3140 003d 4086 3994 3b5d 0040
6681 0784 3b40 0a84 4040 8166 943b 6405
943f 667d 843b 4000 3f40 8166 943b 6605
9440 5d87 3b84 3b40 0040 4081 7094 3b5b
0040 5f81 0284 3b40 0040 4081 7594 3b66
0594 3f61 7d84 3b40 0584 3f40 815c 9440
6605 943b 5f87 1384 3b40 0040 4082 1d94
3d66 0594 314f 0038 5f78 843d 4005 8431
4000 3840 817f 9438 0105 942c 5000 384e
0084 3840 0584 2c40 0038 4005 9434 665f
8434 4081 4d94 3401 0f84 3440 1e94 2d51
0594 3452 0039 5a8c 6384 2d40 0039 4005
8434 4083 5694 3153 0a94 3d3e 0a94 3866
8111 843d 4005 8438 4005 8431 4086 0794
4066 0594 3b5f 8102 843b 4000 4040 8161
943b 530a 943f 6669 843b 400a 843f 4081
6b94 3b66 0594 4066 875e 843b 4014 8440
4081 5294 3b66 0f94 403b 6984 3b40 0a84
4040 817a 943b 5b05 943f 666e 843b 400f
843f 4081 5794 3b66 0040 6687 0984 3b40
0040 401e 9438 010a 8438 4081 7f94 3866
0594 3153 0594 3d3b 6984 3d40 0a84 3140
0a84 3840 8166 942c 500f 9438 4e00 3907
0594 3466 0084 3840 0039 4005 9438 0705
8438 4064 842c 400a 8434 4081 5c94 3966
1494 2d51 0034 558c 4a84 2d40 0039 400a
8434 4081 7594 3159 0a94 3857 4184 3840
1494 382a 7884 3840 1494 3d33 0044 6600
492a 0084 3140 1494 3166 0038 6600 402d
810c 8438 4000 3d40 0040 4000 4440 0584
4940 0584 3140 828c 6a94 2a60 0036 660a
9431 668c 2784 3640 0584 2a40 0f84 3140
8240 943b 660a 9440 6687 0984 3b40 0040
4028 943b 4b00 3f66 852d 843b 4000 3f40
817f 9436 1d0a 9431 661e 942a 628c 3684
2a40 0a84 3140 0036 4082 2c94 3b52 0040
6683 3884 3b40 0584 4040 2394 3b55 003f
6689 0d84 3b40 003f 4081 6694 3601 3c94
3166 0594 2a51 8b52 842a 400f 8431 4000
3640 8306 943b 5700 4066 871d 8440 400a
843b 4023 943b 4a00 3f66 8523 843b 400a
843f 4082 1894 3662 8236 8436 4028 9435
6682 1d84 3540 2894 3666 810c 8436 4064
9438 5305 9433 013c 8433 4081 7a84 3840
2d94 3658 821d 8436 4032 9438 6281 7084
3840 2894 3965 8759 8439 40a5 2794 4401
0594 4066 0084 4440 0f94 4466 8e44 8440
400a 8444 4023 9440 660f 9444 668c 5484
4040 0044 4028 943f 6605 9442 6655 8442
4005 9444 660f 843f 4005 9440 615f 8440
4000 4440 1e94 3f66 0594 4266 8c6d 843f
400a 8442 4028 9440 6300 4466 4684 4440
0a94 421f 0a94 3f2b 0084 4040 7884 3f40
0a84 4240 2894 3d66 0040 668b 1184 3d40
0040 4081 6b94 3f66 0042 6681 5284 3f40
0042 400f 943b 0119 9444 6605 9440 6619
843b 408d 0684 4040 1e84 4440 8125 9440
540a 9444 668c 5e84 4040 0f84 4440 2394
3f66 0a94 4266 5084 4240 0a94 4466 0f94
4066 0084 3f40 5f84 4040 0044 4023 943f
6600 4266 8c54 843f 400f 8442 4023 9440
660a 9444 6632 8444 400a 9442 290a 8440
4005 943f 2f6e 843f 400a 943e 1d05 843e
4005 8442 401e 9440 6605 943d 668b 2084
3d40 0040 4083 5b94 2a34 0031 478b 2584
2a40 0031 4083 6594 3b66 0594 4066 867a
8440 4028 943f 6685 1e84 3b40 0f84 3f40
8222 9436 4505 942a 5705 9431 668b 4384
2a40 1484 3140 0036 4083 3394 3b46 0594
4066 8324 843b 4005 8440 401e 943b 6605
943f 6687 4584 3b40 003f 4083 5b94 2a4f
1494 315f 0036 638c 4a84 3140 0036 400f
842a 4082 0e94 3b3c 0040 6687 0e84 3b40
0f84 4040 2394 3f66 0594 3b32 851e 843b
400a 843f 4005 943e 0d05 843e 4082 0e94
3666 8245 8436 4032 9435 6682 1384 3540
2894 3663 8148 8436 4032 9438 6682 5484
3840 2894 365c 8218 943d 0100 4101 0584
3640 0f84 4140 1484 3d40 0a94 3866 8148
8438 4028 9439 6688 0b84 3940 81bb 1394
3626 0594 2a62 0594 3166 8b02 842a 400a
8436 400a 8431 4083 5b94 4066 0594 3b66
870e 843b 400a 8440 4023 943b 5105 943f
6685 0584 3b40 0584 3f40 820e 9431 011e
9436 640a 942a 548b 3e84 3140 0036 4014
842a 4083 3394 3b5e 0f94 4066 8315 843b
4005 8440 4023 943b 340a 943f 6687 3184
3b40 0584 3f40 8360 9436 590f 9431 5905
942a 4b8b 1b84 3640 0a84 3140 0f84 2a40
834c 9440 660a 943b 4587 0984 3b40 0040
4028 943b 4b05 9447 010a 943f 6685 1984
4740 0584 3f40 0a84 3b40 820e 9436 6682
3b84 3640 2894 3566 822c 8435 4028 9436
6681 5284 3640 2394 3866 823b 8438 402d
9436 6682 4584 3640 2d94 3866 8143 8438
402d 9439 5c8e 5d84 3940 2894 3966 6484
3940 1994 3927 6984 3940 7d94 3966 5a84
3940 1e94 3930 5f84 3940 1994 3301 4b84
3340 0f94 3901 2894 3466 0f94 2d5a 4684
3440 3294 3460 6484 2d40 0034 4000 3940
0594 3966 0f94 2d58 0034 6669 8439 4005
842d 4000 3440 a43e 9431 5800 3d66 0594
3866 811b 8438 4000 3d40 0584 3140 8616
9431 540f 943d 5705 9438 647d 8438 4000
3d40 0584 3140 8161 942f 4905 9436 6600
3b4d 7d84 2f40 0036 4000 3b40 8166 943d
5105 9431 4a00 3866 811b 8438 4000 3d40
0a84 3140 8772 9431 4c0a 9438 6605 943d
5781 0784 3140 0038 4000 3d40 8170 942f
5000 3665 003b 4b78 8436 4000 3b40 0584
2f40 8166 9431 4300 3d66 0594 3850 004b
2a19 844b 4081 0c84 3840 003d 400f 8431
4087 6394 3152 0a94 3d39 0594 3852 8102
8438 4005 843d 4005 8431 4081 5c94 2c42
0a94 3862 0594 383c 0084 3840 0584 3840
0594 3459 824f 942d 570a 9439 5405 9434
5600 8434 4005 8434 408c 5e84 3940 0584
2d40 835b 9431 4f0a 9438 660a 943d 2d00
8438 4081 0c84 3d40 0f84 3140 8611 9431
480f 9438 6605 943d 4581 0284 3140 0038
4000 3d40 8157 942f 4f0f 9436 6600 3b53
7884 3640 003b 4005 842f 4081 6694 3155
003d 4305 9438 5a81 1684 3140 0038 4000
3d40 8806 9431 5314 9438 5500 3d4f 810c
8438 4000 3d40 0584 3140 8157 942f 470f
943b 4605 9436 6600 4201 6984 4240 0584
2f40 003b 400a 8436 4081 5794 3155 0a94
3d44 0a94 3866 811b 8431 4000 3840 003d
4088 0694 3141 003d 3b05 9438 5c7d 8431
4000 3840 003d 4081 7a94 2c4d 003c 4600
842c 4005 9438 2e00 842c 400a 9434 660f
843c 4050 8434 4000 3840 8152 9434 0105
8434 4019 942d 4b0a 9434 6600 3955 8c68
842d 4000 3440 0039 4083 5b94 3157 0a94
3d4d 0594 3862 811b 8438 4000 3d40 0584
3140 8625 9440 6605 943b 4f78 843b 4000
4040 8170 943b 4305 943f 4073 843b 4000
3f40 8161 943b 6305 9440 6685 5a84 3b40
0040 4083 5694 4066 0a94 3b4d 7884 3b40
0040 4081 7094 3b35 0594 3f45 6484 3b40
003f 4081 7a94 3b5c 0594 4066 0594 4101
2384 4140 8666 843b 4000 4040 817f 9438
150f 8438 4014 9431 3f00 385c 003d 4781
0284 3140 0a84 3840 003d 4081 7094 3866
0594 345e 0084 3840 3294 2e01 1e84 3440
0584 2e40 8166 9434 0105 942d 0105 8434
400f 842d 400f 942d 5300 3966 0594 3466
8c54 8439 4005 842d 4000 3440 8356 9431
5b0a 943d 4f0a 9438 5981 3e84 3840 003d
400a 8431 4086 1194 4066 0594 3b57 6e84
3b40 0584 4040 8170 943f 660a 943b 5d69
843b 4005 843f 4081 6694 3b59 0040 6687
3184 3b40 0040 4081 7f94 3b55 003c 0105
9440 6632 843c 4046 843b 4005 8440 4081
7a94 3f66 0594 3b5b 7884 3b40 0a84 3f40
814d 943b 5505 9440 6686 7f84 3b40 0584
4040 822c 9438 5d00 3d34 0594 3145 7d84
3140 003d 400a 8438 4081 7094 2c61 0594
3818 0584 3840 0594 3466 0038 5105 8438
4069 842c 4000 3440 813e 9433 0105 9432
2500 8433 400a 8432 4014 9439 5505 9434
5405 942d 4d8c 6884 3440 0039 400f 842d
4083 5194 3d66 0a94 3166 0594 3858 812f
8431 400a 8438 4000 3d40 8607 9440 6605
943b 586e 843b 400a 8440 4082 0494 3f66
0594 3b45 5f84 3b40 0584 3f40 8170 943b
5900 4066 8727 843b 4000 4040 8204 943b
6600 4066 7884 3b40 1484 4040 8175 943f
6605 943b 666e 843b 4005 843f 4081 5c94
3b66 0040 6687 1d84 4040 0a84 3b40 815c
9437 010a 8437 401e 943d 4c0f 9438 5005
9431 4981 0284 3140 0a84 3840 003d 4081
5c94 2c5a 0594 3839 0a94 3454 6984 3840
0584 3440 0584 2c40 813e 9434 2028 942d
4800 3966 8c40 8434 4014 842d 4000 3940
8374 9431 5600 3866 003d 5381 2584 3840
003d 400a 8431 4086 2a94 3b5e 0040 6673
843b 4005 8440 4081 7094 3b5c 0a94 3f66
6984 3b40 003f 4081 6194 4066 0594 3b66
874a 843b 4000 4040 8175 9440 6605 943b
5a6e 843b 400a 8440 4081 7a94 3b55 003f
6678 843b 4005 843f 4081 4894 4066 0a94
3b5a 874f 843b 400a 8440 4081 4394 3801
0584 3840 2394 3866 003d 6605 9431 3778
843d 4005 8431 4005 8438 4081 7094 385c
0a94 2c49 0034 626e 842c 4000 3440 0038
4081 3e94 3301 0584 3340 2394 2d4f 0039
660f 9434 5181 48b4 0764 8b11 842d 4000
3440 0039 4083 6f94 3153 0594 3d51 0040
1105 9438 6619 8440 4081 2f84 3d40 0584
3140 0038 4000 ff2f 00